<svg xmlns="http://www.w3.org/2000/svg" width="400" height="400" viewBox="0 0 400 400">
<g>
<path d="M 186.43,387.50 C179.17,380.32 173.87,371.19 171.06,361.02 C169.06,353.74 169.00,351.32 169.00,270.52 L 169.00,187.50 L 171.84,181.50 C175.53,173.72 177.16,172.30 180.10,174.36 C182.19,175.82 182.43,175.70 185.11,172.01 C194.20,159.46 207.69,160.16 215.60,173.60 C216.56,175.23 217.03,175.31 219.46,174.20 C222.94,172.61 224.19,173.54 227.83,180.44 L 230.50,185.50 L 230.50,272.00 L 230.50,358.50 L 227.85,364.78 C223.96,374.02 219.21,381.39 213.01,387.80 L 207.50,393.50 L 207.00,294.50 C206.61,216.93 206.22,195.02 205.23,193.27 C203.60,190.42 200.43,188.73 198.11,189.46 C193.46,190.94 193.53,189.42 193.00,294.50 L 192.50,393.50 L 186.43,387.50 M 186.11,192.75 C187.24,191.51 189.58,188.25 191.33,185.50 C194.20,180.97 194.89,180.47 198.61,180.20 C203.50,179.84 207.25,182.51 211.67,189.52 C214.23,193.56 218.00,195.62 218.00,192.98 C218.00,190.41 209.79,176.00 206.98,173.64 C201.85,169.32 195.39,170.19 190.38,175.86 C188.03,178.52 181.00,192.11 181.00,193.99 C181.00,195.79 184.02,195.06 186.11,192.75 M 149.00,369.32 C104.63,354.02 71.66,327.03 49.14,287.58 C28.61,251.63 22.36,210.50 31.02,168.39 C40.90,120.39 69.46,78.70 110.40,52.52 C123.93,43.87 151.91,31.99 155.51,33.37 C156.80,33.86 157.03,35.57 156.79,43.21 L 156.50,52.45 L 147.50,56.13 C127.39,64.36 109.65,76.24 94.00,91.96 C71.27,114.78 57.02,141.59 49.86,175.00 C47.99,183.75 47.61,188.67 47.58,204.50 C47.53,229.82 49.51,239.78 58.79,261.00 C70.76,288.37 87.20,309.51 109.54,326.28 C119.83,334.00 137.46,343.71 147.97,347.45 C152.07,348.92 156.01,350.59 156.72,351.18 C158.05,352.29 158.56,365.37 157.39,368.42 C156.80,369.98 152.30,370.46 149.00,369.32 M 242.61,368.42 C241.75,366.19 241.88,352.74 242.77,351.36 C243.17,350.73 247.56,348.65 252.53,346.73 C270.58,339.77 283.27,332.04 299.36,318.19 C314.59,305.10 328.00,287.58 337.42,268.50 C348.55,245.95 351.46,232.40 351.48,203.00 C351.50,180.57 350.58,174.11 344.81,156.02 C338.82,137.28 330.20,121.12 318.29,106.30 C301.76,85.75 279.61,68.89 254.50,57.74 C241.98,52.18 242.00,52.21 242.00,42.97 C242.00,32.35 242.47,32.08 254.06,35.97 C280.43,44.80 310.51,65.60 329.06,87.81 C348.86,111.54 361.02,136.32 368.63,168.54 C371.32,179.88 371.46,181.69 371.43,203.50 C371.40,228.14 370.33,236.16 364.49,255.52 C349.20,306.23 307.88,348.81 256.28,367.02 C246.76,370.38 243.49,370.71 242.61,368.42 M 114.57,296.43 C113.71,295.56 113.00,294.08 113.00,293.13 C113.00,289.62 115.09,289.00 127.00,289.00 C139.18,289.00 141.00,289.58 141.00,293.50 C141.00,297.39 139.17,298.00 127.37,298.00 C118.50,298.00 115.81,297.67 114.57,296.43 M 259.65,296.17 C258.74,295.17 258.00,293.68 258.00,292.87 C258.00,289.61 260.29,289.00 272.50,289.00 C285.31,289.00 287.00,289.54 287.00,293.66 C287.00,297.14 284.08,298.00 272.22,298.00 C262.92,298.00 261.07,297.73 259.65,296.17 M 85.82,267.67 C74.86,263.06 67.46,254.90 64.34,244.02 C63.47,240.98 62.31,237.94 61.76,237.25 C61.04,236.36 61.19,236.00 62.29,236.00 C63.98,236.00 63.67,236.76 79.01,195.00 C97.19,145.55 95.82,148.76 97.71,151.26 C98.23,151.94 102.63,163.07 107.49,176.00 C117.70,203.13 126.61,226.96 128.43,232.00 C129.57,235.16 130.10,235.53 133.93,235.81 C137.04,236.04 138.03,236.49 137.64,237.50 C137.35,238.26 136.60,240.82 135.97,243.19 C133.49,252.63 125.72,261.74 116.00,266.64 C111.38,268.97 108.99,269.46 101.00,269.74 C92.77,270.02 90.74,269.75 85.82,267.67 M 120.33,234.00 C120.16,232.56 118.73,228.73 108.55,202.50 C105.99,195.90 102.27,186.09 100.29,180.71 C98.31,175.32 96.40,171.27 96.05,171.71 C95.70,172.14 94.82,174.30 94.09,176.50 C92.53,181.25 86.07,199.23 79.19,218.00 C76.47,225.43 73.93,232.52 73.55,233.77 L 72.85,236.04 L 96.68,235.77 C117.16,235.54 120.48,235.29 120.33,234.00 M 290.00,269.11 C277.75,265.14 267.79,255.60 263.77,244.00 C262.91,241.53 261.90,238.74 261.52,237.81 C260.94,236.38 261.57,236.07 265.53,235.81 L 270.23,235.50 L 273.93,225.00 C279.28,209.81 300.93,152.73 302.00,150.99 C303.46,148.64 304.36,150.38 310.78,168.00 C332.40,227.35 335.51,235.32 337.26,235.78 C338.41,236.08 338.73,236.64 338.16,237.37 C337.67,237.99 336.45,241.18 335.43,244.46 C332.57,253.74 325.94,261.74 317.60,265.99 C311.38,269.16 309.82,269.52 301.61,269.71 C296.60,269.82 291.38,269.55 290.00,269.11 M 326.33,235.25 C326.57,234.84 323.22,225.05 318.88,213.50 C314.54,201.95 309.36,187.89 307.36,182.25 C305.36,176.61 303.41,172.00 303.02,172.00 C302.63,172.00 301.15,175.04 299.72,178.75 C294.98,191.03 279.00,234.71 279.00,235.36 C279.00,236.27 325.79,236.16 326.33,235.25 M 126.57,169.98 C118.24,166.73 111.64,158.83 108.08,147.82 C107.13,144.87 106.25,144.00 103.69,143.45 C98.16,142.25 95.16,140.13 92.42,135.45 C90.19,131.64 89.83,130.07 90.25,125.76 C90.65,121.59 91.34,120.09 93.89,117.81 C97.43,114.65 101.40,114.19 104.78,116.56 C108.22,118.97 107.01,124.71 103.37,123.31 C101.26,122.50 99.00,124.91 99.00,127.97 C99.00,131.84 101.97,134.03 108.39,134.90 C115.28,135.84 117.19,137.51 119.91,144.97 C124.50,157.55 135.78,161.59 146.19,154.37 C153.09,149.59 154.42,145.09 155.01,124.50 C155.58,104.79 156.16,102.57 162.01,97.65 C165.07,95.07 169.77,93.38 175.50,92.80 L 178.50,92.50 L 179.11,100.00 C179.78,108.18 183.74,119.05 189.17,127.61 C193.55,134.52 205.53,146.02 211.86,149.39 L 217.21,152.24 L 219.79,149.66 L 222.37,147.09 L 217.62,145.05 C212.34,142.79 202.36,133.80 197.83,127.24 C190.50,116.62 186.04,103.78 186.01,93.22 C186.00,89.45 186.43,87.77 187.49,87.37 C189.46,86.61 191.43,79.86 190.63,76.65 C190.28,75.25 188.18,72.02 185.97,69.46 C178.47,60.80 175.00,51.06 175.00,38.68 C175.00,32.43 175.48,29.75 177.25,26.22 C179.69,21.33 184.25,17.30 188.68,16.10 C191.55,15.33 191.58,15.24 191.91,7.24 C192.03,4.22 197.60,0.74 201.00,1.55 C205.39,2.60 207.87,5.82 208.20,10.88 C208.45,14.72 208.86,15.55 210.63,15.80 C213.93,16.27 221.06,22.93 223.11,27.44 C226.59,35.10 225.08,51.04 219.91,61.17 C218.76,63.43 215.77,67.47 213.28,70.13 C208.91,74.81 208.76,75.16 209.23,80.00 C209.49,82.76 210.48,85.87 211.42,86.91 C215.26,91.15 208.71,102.47 200.25,106.21 L 196.00,108.09 L 197.57,111.14 C198.91,113.72 199.55,114.08 201.82,113.53 C208.34,111.96 217.31,102.20 218.61,95.26 C219.23,91.94 219.37,91.85 222.88,92.47 C234.15,94.49 239.20,97.34 242.41,103.50 C244.23,106.99 244.56,109.80 245.00,125.50 C245.47,142.36 245.66,143.78 248.00,147.96 C255.93,162.12 273.97,160.70 279.46,145.50 C281.96,138.57 285.49,135.46 291.80,134.62 C297.13,133.91 301.00,130.71 301.00,126.99 C301.00,124.73 298.61,122.77 296.31,123.15 C292.01,123.86 290.68,120.32 294.00,117.00 C298.56,112.44 307.24,116.66 308.95,124.25 C310.81,132.55 306.58,139.53 297.67,142.85 C292.95,144.61 292.59,145.01 290.48,150.86 C287.67,158.61 284.82,162.79 279.94,166.29 C268.62,174.43 253.00,173.68 242.24,164.47 C238.16,160.98 232.00,150.37 232.00,146.84 C232.00,142.36 227.58,146.78 223.11,155.72 C221.40,159.14 219.99,162.52 219.98,163.22 C219.98,163.92 219.56,165.14 219.07,165.93 C218.35,167.07 217.63,166.71 215.46,164.13 C207.37,154.53 193.93,153.87 185.50,162.66 C181.26,167.09 180.02,167.29 179.98,163.58 C179.93,158.97 169.82,143.64 168.11,145.61 C167.69,146.10 166.82,148.32 166.19,150.55 C163.55,159.86 155.02,168.51 146.03,171.01 C140.51,172.54 131.97,172.09 126.57,169.98 M 206.48,65.88 C211.44,61.53 213.54,58.31 215.31,52.32 L 216.85,47.14 L 212.18,44.82 C206.87,42.19 203.00,37.10 203.00,32.77 L 203.00,29.83 L 206.75,32.77 C211.60,36.58 214.38,38.00 216.93,38.00 C220.59,38.00 219.41,34.49 215.10,32.54 C210.72,30.57 205.43,25.37 202.07,19.75 C200.84,17.69 199.66,16.00 199.44,16.00 C199.22,16.00 198.17,17.71 197.10,19.79 C195.17,23.59 188.68,30.20 183.66,33.48 C182.20,34.44 181.00,35.85 181.00,36.62 C181.00,40.02 189.19,36.91 195.25,31.21 C197.98,28.64 198.00,28.64 198.00,30.85 C198.00,34.64 195.45,39.39 191.61,42.77 C189.59,44.54 187.36,46.00 186.67,46.00 C185.97,46.00 184.90,46.50 184.30,47.10 C182.82,48.58 185.33,56.06 189.20,61.74 C194.49,69.52 200.65,71.00 206.48,65.88 M 122.65,114.17 C120.77,112.09 120.52,108.77 122.04,105.93 C123.57,103.06 130.36,103.25 132.44,106.22 C134.54,109.21 134.40,111.60 132.00,114.00 C129.50,116.50 124.84,116.58 122.65,114.17 M 267.65,114.17 C265.57,111.87 265.51,106.65 267.55,104.96 C269.71,103.16 274.77,103.34 276.71,105.29 C278.94,107.51 278.80,112.94 276.48,114.64 C273.86,116.56 269.61,116.33 267.65,114.17 Z" fill="rgba(0,0,0,1)"/>
</g>
</svg>